<svg xmlns="http://www.w3.org/2000/svg" fill-rule="evenodd" stroke-miterlimit="1.5" viewBox="0 0 700 500" clip-rule="evenodd" stroke-linecap="square" stroke-linejoin="round">
  <path fill="#f8f9fb" d="M0 0h700v500H0z"/>
  <path fill="none" stroke="#5c637a" d="M499 119.7c0-9.8-8-17.7-17.7-17.7H220.7c-9.8 0-17.7 8-17.7 17.7v260.6c0 9.8 8 17.7 17.7 17.7h260.6c9.8 0 17.7-8 17.7-17.7V119.7z" stroke-dasharray="10 10 10 10"/>
  <g fill="#00abeb" fill-rule="nonzero">
    <path d="M350 237.3c-.6 0-1-.5-1-1v-64.5c0-.6.4-1 1-1s1 .4 1 1v64.4c0 .6-.4 1-1 1z"/>
    <path d="M350 237.3c-.3 0-.5-.2-.7-.3l-25.6-25.6c-.4-.4-.4-1 0-1.4.4-.4 1-.4 1.5 0l24.8 24.8 24.8-24.8c.4-.4 1-.4 1.5 0 .4.4.4 1 0 1.4L350.7 237c-.2 0-.4.3-.7.3z"/>
  </g>
  <g fill="#00abeb" fill-rule="nonzero">
    <path d="M257.7 309.2v-22.8c0-.2 0-.4.3-.5.2-.3.5-.4.7-.4h6c2 0 3.7.6 5 1.8 1.3 1 2 3 2 5.3V303c0 2.3-.7 4-2 5.3-1.3 1-3 1.7-5 1.7h-6c-.2 0-.5 0-.7-.3-.2 0-.3-.3-.3-.5zm2.2-1.2h4.6c1.6 0 2.7-.5 3.6-1.3.8-1 1.2-2 1.2-3.8v-10.3c0-1.7-.4-3-1.2-3.8-1-1-2-1.3-3.6-1.3H260V308zM275.8 309v-14c0-.2 0-.4.3-.5.3-.2.5-.3.8-.3.3 0 .6 0 .8.3.2 0 .3.3.3.5v1.7c.3-.8 1-1.4 1.6-2 .8-.4 1.7-.7 2.7-.7h1.2c.2 0 .4 0 .6.3.3.2.4.5.4.7 0 .3 0 .5-.3.7 0 .2-.3.3-.5.3h-1.2c-1 0-2 .5-3 1.4-1 1-1.4 2-1.4 3.5v8c0 .4-.2.6-.4.7-.2.2-.4.3-.8.3-.2 0-.5 0-.7-.3l-.2-.6zM285.6 304v-3.7c0-1.7.6-3.2 1.8-4.4 1.3-1.4 2.8-2 4.5-2 1.6 0 3 .6 4.3 2 1.3 1 2 2.6 2 4.3v3.6c0 1.6-.7 3-2 4.3-1.2 1.3-2.7 2-4.4 2-1.8 0-3.3-.7-4.5-2-1.3-1.3-2-2.7-2-4.4zm2 0c0 1 .6 2 1.4 3 .8.8 1.7 1.2 3 1.2 1 0 2-.4 2.8-1.3 1-1 1.3-2 1.3-3v-3.7c0-1-.3-2-1.2-3-.8-.8-1.8-1.3-3-1.3-1 0-2 .5-2.8 1.3-.8 1-1.3 2-1.3 3v3.6zM301.8 317v-22c0-.2 0-.4.3-.5.3-.2.6-.3 1-.3.2 0 .4 0 .6.3.2 0 .3.3.3.5v1.6c.3-.7 1-1.3 1.7-1.8.8-.5 1.7-.8 2.7-.8 1.6 0 3 .6 4.2 2 1.2 1 1.8 2.6 1.8 4.3v3.6c0 1.6-.6 3-1.8 4.3-1.2 1.3-2.6 2-4 2-1 0-2-.3-2.8-.8-.8-.5-1.4-1-1.8-1.8v9.2s0 .3-.3.5l-.8.2c-.4 0-.7 0-1-.2l-.2-.6zm2.2-12c0 .5.4 1.2 1.2 2 1 .8 1.8 1.2 3 1.2 1 0 2-.4 2.8-1.3.8-1 1.2-2 1.2-3v-3.7c0-1-.4-2-1.2-3-1-.8-2-1.3-3-1.3s-2 .4-2.8 1.2c-.8.8-1.2 1.8-1.2 3v4.7zM324.6 309v-14c0-.2 0-.4.3-.5 0-.2.4-.3.7-.3.3 0 .5 0 .7.3.2 0 .3.3.3.5v1.6c.4-.8 1-1.4 1.8-2 .7-.3 1.6-.6 2.6-.6 1.2 0 2.2.3 3 1 1 .6 1.5 1.4 2 2.4.4-1 1.2-2 2-2.5 1-.7 2-1 3-1 1.5 0 2.8.6 4 1.7 1 1.2 1.5 2.7 1.5 4.6v8.8c0 .4 0 .6-.3.7-.2.2-.4.3-.8.3-.2 0-.5 0-.7-.3-.2 0-.3-.3-.3-.6v-8.7c0-1.3-.4-2.4-1.2-3-.7-1-1.6-1.3-2.6-1.3s-2 .4-2.7 1.2c-1 .7-1.3 1.7-1.3 3v9c0 .5-.4.8-1 .8-.8 0-1.2-.3-1.2-.8v-9c0-1.2-.4-2.2-1-3-.8-.8-1.7-1.2-2.8-1.2-1 0-2 .4-2.7 1.2-.8.7-1.2 1.8-1.2 3v9c0 .2 0 .4-.4.5-.2.2-.4.3-.7.3-.3 0-.6 0-.8-.3-.3 0-.4-.3-.4-.6zM349.5 305.8c0-1.7.7-3 2-3.5 1.3-.7 3.2-1 5.8-1h1.7v-.8c0-1.3-.3-2.3-1-3.2-.6-1-1.6-1.4-3-1.4-.8 0-1.6 0-2.4.4l-1 .5c-.4 0-.6-.2-.8-.5l-.2-.8c0-.4.5-.8 1.4-1 1-.5 2-.7 3-.7 2.2 0 3.7.6 4.7 1.8 1 1.3 1.4 2.8 1.4 4.7v8.6c0 .4 0 .6-.2.7-.2.2-.4.3-.7.3-.2 0-.4 0-.6-.3-.2 0-.3-.3-.3-.6v-1.3c-1.4 1.7-3 2.5-5 2.5-1.3 0-2.4-.3-3.2-1-1-.8-1.3-2-1.3-3.4zm2.2-.2c0 1 .2 1.7.8 2 .5.6 1.2.8 2 .8 1 0 2-.4 3-1.2 1-.7 1.5-1.5 1.5-2.3v-2.2H355.3c-.6 0-1.2.3-1.8.4-.6.2-1 .5-1.4 1-.2.3-.3.8-.3 1.4zM365.2 317v-22c0-.2 0-.4.3-.5.2-.2.5-.3.8-.3.3 0 .5 0 .7.3.2 0 .3.3.3.5v1.6c.4-.7 1-1.3 1.8-1.8 1-.5 1.8-.8 2.8-.8 1.6 0 3 .6 4.2 2 1.2 1 1.8 2.6 1.8 4.3v3.6c0 1.6-.6 3-1.8 4.3-1.2 1.3-2.6 2-4 2-1 0-2-.3-2.8-.8-.8-.5-1.4-1-1.8-1.8v9.2s0 .3-.3.5l-.7.2c-.3 0-.6 0-.8-.2l-.3-.6zm2.2-12c0 .5.4 1.2 1.2 2 1 .8 1.8 1.2 3 1.2 1 0 2-.4 2.8-1.3.8-1 1.2-2 1.2-3v-3.7c0-1-.4-2-1.2-3-1-.8-2-1.3-3-1.3s-2 .4-2.8 1.2c-.8.8-1.2 1.8-1.2 3v4.7zM388 309v-23.6c0-.3 0-.4.3-.6.2-.2.5-.2.8-.2.4 0 .7 0 1 .2l.2.6v11.2c.4-.7 1-1.3 1.7-1.8s1.6-.8 2.6-.8c1.6 0 3 .6 4 2 1.3 1 2 2.6 2 4.3v8.8c0 .4-.2.6-.4.8l-.8.2c-.3 0-.5 0-.8-.2-.2-.2-.3-.4-.3-.7v-8.7c0-1-.4-2-1.2-3-.7-.8-1.7-1.3-2.8-1.3-1 0-2 .4-2.8 1.2-.8.8-1.2 1.8-1.2 3v9c0 .2 0 .4-.4.5-.2.2-.4.3-.7.3-.2 0-.5 0-.7-.3-.2 0-.3-.3-.3-.6zM404 304V300c0-1.7.6-3 1.8-4.4 1.3-1.2 2.8-1.8 4.5-1.8 1.7 0 3.2.6 4.4 1.8 1.2 1 1.8 2.6 1.8 4.3 0 .7 0 1.2-.2 1.6 0 .4-.3.6-.7.8-.3.2-.6.3-1 .3h-8.5v1.3c0 1.3.6 2.4 1.5 3 1 1 2.2 1.3 3.7 1.3.7 0 1.4 0 2-.3.5-.2 1-.4 1.3-.7l.7-.3c.2 0 .4 0 .6.3l.3.7c0 .5-.4 1-1.3 1.5-1 .5-2.2.7-3.6.7-2 0-3.7-.6-5-1.7-1.4-1.2-2-2.7-2-4.6zm2-2.8h6.8c.6 0 1 0 1.3-.3.3-.2.4-.5.4-1 0-1-.3-2-1-3-1-.7-2-1.2-3-1.2-1.3 0-2.3.4-3 1.2-1 .8-1.3 1.8-1.3 3v1.2zM419.8 309v-14c0-.2 0-.4.3-.5.3-.2.6-.3 1-.3.2 0 .4 0 .6.3.2 0 .3.3.3.5v1.7c.3-.8 1-1.4 1.7-2 .8-.4 1.7-.7 2.7-.7h1c.4 0 .6 0 .7.3.3.2.4.5.4.7 0 .3 0 .5-.3.7 0 .2-.2.3-.5.3h-1c-1.3 0-2.3.5-3.2 1.4-1 1-1.3 2-1.3 3.5v8c0 .4 0 .6-.3.7-.2.2-.5.3-.8.3-.4 0-.7 0-1-.3l-.2-.6zM429.6 304V300c0-1.7.7-3 2-4.4 1.2-1.2 2.7-1.8 4.4-1.8 1.7 0 3.2.6 4.4 1.8 1.2 1 1.8 2.6 1.8 4.3 0 .7 0 1.2-.2 1.6 0 .4-.3.6-.7.8-.3.2-.6.3-1 .3H432v1.3c0 1.3.5 2.4 1.4 3 1 1 2.2 1.3 3.7 1.3.6 0 1.3 0 2-.3.4-.2 1-.4 1.2-.7l.7-.3s.3 0 .5.3l.3.7c0 .5-.5 1-1.4 1.5-1 .5-2.2.7-3.6.7-2 0-3.8-.6-5.2-1.7-1.3-1.2-2-2.7-2-4.6zm2.2-2.8h6.7c.6 0 1 0 1.3-.3.2-.2.3-.5.3-1 0-1-.2-2-1-3-.8-.7-1.8-1.2-3-1.2s-2.2.4-3 1.2c-.8.8-1.2 1.8-1.2 3v1.2zM267.3 338.4V321c0-.4 0-.5.3-.7.2-.2.5-.2.7-.2.3 0 .6 0 .8.3.3.2.4.3.4.6v6.6h4.3c.3 0 .5 0 .6.2l.2.7c0 .2 0 .4-.2.6 0 .3-.3.4-.6.4h-4.3v9c0 1 .3 2 .7 2.3.6.4 1.4.7 2.5.7h1c.3 0 .5 0 .7.2.2.2.3.5.3.7 0 .3 0 .5-.3.7-.2.2-.4.3-.7.3h-1c-3.5 0-5.2-1.6-5.2-5zM276.3 337.2v-3.6c0-1.7.6-3 2-4.4 1-1.2 2.6-1.8 4.3-1.8 1.7 0 3.2.6 4.5 1.8 1.3 1.2 2 2.7 2 4.4v3.6c0 1.7-.7 3.2-2 4.5-1.2 1.2-2.7 2-4.4 2-1.7 0-3-.8-4.4-2-1.3-1.3-2-2.8-2-4.5zm2.2 0c0 1.2.4 2.2 1.2 3 .8 1 1.8 1.4 3 1.4 1 0 2-.5 3-1.4.7-.8 1-1.8 1-3v-3.6c0-1-.3-2-1-3-1-.8-2-1.2-3-1.2-1.2 0-2.2.4-3 1.3-.8.8-1.2 1.8-1.2 3v3.5zM298 346.6c0-1.6 1-2.8 2.8-3.6-1.2-.4-2-1.2-2-2.3 0-1 .7-1.8 1.8-2.4-1.2-1-1.8-2.4-1.8-4.2V333c0-1.6.5-3 1.6-4 1-1 2.4-1.4 4-1.4 1.7 0 3 .4 4 1.4.3-.7.7-1.2 1-1.6.6-.3 1-.5 1.4-.5.3 0 .5 0 .7.2.2 0 .3.3.3.5 0 .4-.2.7-.6.8-.8 0-1.4.6-2 1.4.8.8 1 2 1 3v1.4c0 1.7-.5 3-1.6 4-1 1-2.4 1.6-4 1.6-1 0-2-.2-2.7-.5-.8.4-1 1-1 1.4 0 .4 0 .8.6 1 .6.3 1.2.4 2 .5.7 0 1.6 0 2.5.2 1 .2 1.8.3 2.6.6.7.2 1.4.6 2 1.2.4.6.6 1.4.6 2.3 0 1.5-.6 2.7-1.8 3.5-1.2 1-2.7 1.3-4.7 1.3s-3.6-.3-5-1c-1-1-1.8-2-1.8-3.4zm2-.2c0 1 .5 1.7 1.3 2.2.8.6 2 1 3.4 1s2.5-.4 3.3-1c.8-.5 1-1.3 1-2.2 0-.4 0-.8-.2-1.2-.2-.3-.5-.6-.8-.7l-1.2-.5-1.2-.3h-1.4l-1.2-.2c-2 .6-3 1.6-3 3zm1-12.3c0 1.2.2 2.2 1 3 .5.6 1.4 1 2.5 1 1 0 2-.4 2.7-1 .6-.8 1-1.8 1-3V333c0-1-.4-2-1-2.7-.7-.6-1.6-1-2.7-1-1 0-2 .4-2.6 1-.8.8-1 1.7-1 2.8v1.3zM313.7 337.2v-3.7c0-1.7.6-3 1.8-4.3 1.3-1.2 2.8-1.8 4.5-1.8 1.7 0 3.2.5 4.4 1.7 1.3 1.3 2 2.7 2 4.4 0 .7-.2 1.2-.3 1.5 0 .3-.3.6-.6.7l-1 .3H316v1.3c0 1.3.5 2.4 1.5 3.2 1 .8 2 1.2 3.6 1.2.7 0 1.3 0 2-.4l1.2-.6c.3-.3.5-.4.7-.4.2 0 .4.2.6.4.2.2.2.4.2.7 0 .4-.4 1-1.4 1.4-1 .5-2 .8-3.6.8-2 0-3.8-.6-5-1.8-1.5-1-2-2.7-2-4.6zm2-2.7h6.8c.7 0 1 0 1.3-.2.3-.2.4-.5.4-1 0-1-.4-2-1.2-3-.8-.7-1.8-1-3-1-1 0-2 .3-3 1-.7 1-1.2 1.8-1.2 3v1.2zM329.5 338.4V321c0-.4 0-.5.3-.7.2-.2.5-.2.7-.2.3 0 .6 0 .8.3.2.2.3.3.3.6v6.6h4.3c.2 0 .4 0 .5.2l.2.7c0 .2 0 .4-.2.6 0 .3-.3.4-.6.4h-4.4v9c0 1 .3 2 .7 2.3.5.4 1.3.7 2.4.7h1c.3 0 .5 0 .7.2.2.2.3.5.3.7 0 .3 0 .5-.3.7-.2.2-.4.3-.7.3h-1c-3.5 0-5.2-1.6-5.2-5zM345 341.2c0-.3.2-.5.3-.7l.6-.3s.3 0 .6.3.8.6 1.4.8c.7.3 1.4.4 2.3.4 1.2 0 2-.2 2.6-.6.4-.4.7-1 .7-1.6 0-.8-.3-1.5-.8-2-.7-.4-1.4-.8-2.2-1l-2.4-.7c-.8-.3-1.5-.7-2-1.4-.6-.6-1-1.4-1-2.4 0-1.3.5-2.4 1.4-3.3 1-1 2.2-1.3 4-1.3 1 0 2 0 3 .5 1 .2 1.4.6 1.4 1 0 .2 0 .5-.3.7-.2.3-.4.4-.7.4 0 0-.5 0-1.2-.3s-1.4-.5-2.2-.5c-1 0-2 .3-2.5.8-.6.5-1 1-1 1.8 0 .7.4 1.2 1 1.6l2 1 2.5.7c.8.4 1.5.8 2 1.5.6.7 1 1.7 1 2.8 0 1.3-.6 2.3-1.5 3-1 1-2.3 1.3-4 1.3-1.4 0-2.7-.3-3.7-.8s-1.5-1-1.5-1.6zM359 338.4V321c0-.4 0-.5.2-.7.2-.2.5-.2.7-.2.2 0 .5 0 .7.3.2.2.3.3.3.6v6.6h4.3c.3 0 .5 0 .6.2V329c-.2.3-.4.4-.7.4H361v9c0 1 .3 2 .7 2.3.5.4 1.3.7 2.4.7h1c.4 0 .6 0 .8.2.2.2.3.5.3.7 0 .3 0 .5-.2.7-.2.2-.4.3-.7.3h-1c-3.4 0-5-1.6-5-5zM367.7 339.2c0-1.7.7-3 2-3.6 1.4-.7 3.3-1 5.8-1h1.7v-.8c0-1.2-.3-2.3-1-3.2-.6-1-1.6-1.3-3-1.3-.8 0-1.6 0-2.3.4l-1.3.5c-.3 0-.5 0-.6-.3l-.2-1c0-.4.5-.7 1.5-1 1-.5 2-.6 3-.6 2 0 3.7.6 4.6 1.8 1 1.2 1.4 2.7 1.4 4.6v8.7c0 .2 0 .4-.3.6 0 .2-.4.3-.7.3-.3 0-.5 0-.7-.2-.2 0-.3-.3-.3-.5V341c-1.5 1.7-3.2 2.6-5 2.6-1.4 0-2.4-.4-3.3-1.2-.8-.7-1.3-1.8-1.3-3.2zm2.2-.2c0 1 .2 1.6.7 2 .5.5 1.2.7 2 .7 1.2 0 2.2-.4 3-1 1-1 1.5-1.7 1.5-2.5v-2h-3.6c-.6 0-1.3.2-2 .4-.5 0-1 .4-1.2.8-.3.4-.5 1-.5 1.6zM383.4 342.5v-14c0-.4 0-.5.3-.7.2-.2.5-.2.8-.2.3 0 .5 0 .7.2.2.2.3.3.3.6v1.6c.4-.7 1-1.4 1.8-2 .8-.4 1.7-.6 2.7-.6h1.2c.2 0 .4 0 .6.3.2.2.2.4.2.7 0 .2 0 .5-.2.7-.2.3-.4.4-.6.4H390c-1 0-2.2.4-3 1.3-1 1-1.4 2-1.4 3.5v8.3c0 .2 0 .4-.3.6-.2.2-.5.3-.8.3-.3 0-.5 0-.7-.2-.2 0-.4-.3-.4-.5zM394.4 338.4V321c0-.4 0-.5.3-.7.3-.2.5-.2.8-.2.3 0 .5 0 .7.3.3.2.4.3.4.6v6.6h4.3s.3 0 .4.2c.2.2.2.4.2.7 0 .2 0 .4-.2.6 0 .3-.3.4-.5.4h-4.4v9c0 1 .2 2 .7 2.3.4.4 1.2.7 2.4.7h1c.2 0 .4 0 .6.2.2.2.3.5.3.7 0 .3 0 .5-.3.7-.2.2-.4.3-.7.3h-1c-3.4 0-5.2-1.6-5.2-5zM403.5 337.2v-3.7c0-1.7.6-3 1.8-4.3 1.3-1.2 2.8-1.8 4.5-1.8 1.7 0 3.2.5 4.4 1.7 1.3 1.3 2 2.7 2 4.4 0 .7-.2 1.2-.3 1.5-.3.3-.5.6-.8.7l-1 .3h-8.6v1.3c0 1.3.5 2.4 1.5 3.2 1 .8 2.2 1.2 3.7 1.2.8 0 1.4 0 2-.4l1.3-.6c.3-.3.5-.4.7-.4.3 0 .5.2.7.4.2.2.2.4.2.7 0 .4-.4 1-1.4 1.4-1 .5-2 .8-3.6.8-2 0-3.8-.6-5-1.8-1.5-1-2-2.7-2-4.6zm2-2.7h6.8c.7 0 1 0 1.3-.2.3-.2.4-.5.4-1 0-1-.4-2-1.2-3-.8-.7-1.8-1-3-1-1 0-2 .3-3 1-.7 1-1.2 1.8-1.2 3v1.2zM418.7 337.2v-3.6c0-1.7.6-3.2 1.8-4.4 1.2-1.2 2.6-1.8 4.2-1.8 1 0 2 .2 2.7.7.8.6 1.3 1.2 1.7 2v-11.3c0-.2.2-.4.4-.6h1.6l.3.7v23.8c0 .2 0 .4-.3.6-.2.2-.5.3-.8.3-.2 0-.5 0-.7-.2-.2 0-.3-.3-.3-.5V341c-.4.7-1 1.3-1.8 1.8s-1.8.8-2.8.8c-1.5 0-3-.7-4-2-1.3-1.2-2-2.7-2-4.4zm2.2 0c0 1 .3 2 1 3 1 1 2 1.4 3 1.4s2-.4 3-1.2c.7-.8 1-1.5 1-2v-4.8c0-1.3-.3-2.3-1-3-1-.8-2-1.2-3-1.2s-2 .4-3 1.3c-.7.8-1 1.8-1 3v3.5z"/>
  </g>
</svg>
