<?xml version="1.0" encoding="UTF-8" standalone="no"?><!DOCTYPE svg PUBLIC "-//W3C//DTD SVG 1.1//EN" "http://www.w3.org/Graphics/SVG/1.1/DTD/svg11.dtd"><svg width="100%" height="100%" viewBox="0 0 246 58" version="1.1" xmlns="http://www.w3.org/2000/svg" xmlns:xlink="http://www.w3.org/1999/xlink" xml:space="preserve" style="fill-rule:evenodd;clip-rule:evenodd;stroke-linecap:square;stroke-linejoin:round;stroke-miterlimit:1.5;"><g id="Logo"><path d="M120.798,40.444l0,-30.444l41,41l0,-34" style="fill:none;stroke:#f8f9fb;stroke-width:6px;"/><path d="M9.036,17l0,31l38,-38l0,38l31,-31" style="fill:none;stroke:#f8f9fb;stroke-width:6px;"/><path d="M89,17l26,26" style="fill:none;stroke:#f8f9fb;stroke-width:6px;"/><path d="M9.036,0c4.691,0 8.5,3.809 8.5,8.5c0,4.691 -3.809,8.5 -8.5,8.5c-4.692,0 -8.5,-3.809 -8.5,-8.5c0,-4.691 3.808,-8.5 8.5,-8.5Zm0,4c2.483,0 4.5,2.016 4.5,4.5c0,2.484 -2.017,4.5 -4.5,4.5c-2.484,0 -4.5,-2.016 -4.5,-4.5c0,-2.484 2.016,-4.5 4.5,-4.5Z" style="fill:#f8f9fb;"/><path d="M83.75,2.255c4.691,0 8.5,3.808 8.5,8.5c0,4.691 -3.809,8.5 -8.5,8.5c-4.692,0 -8.5,-3.809 -8.5,-8.5c0,-4.692 3.808,-8.5 8.5,-8.5Zm0,4c2.483,0 4.5,2.016 4.5,4.5c0,2.483 -2.017,4.5 -4.5,4.5c-2.484,0 -4.5,-2.017 -4.5,-4.5c0,-2.484 2.016,-4.5 4.5,-4.5Z" style="fill:#f8f9fb;"/><path d="M120.798,40.444c4.691,0 8.5,3.808 8.5,8.5c0,4.691 -3.809,8.5 -8.5,8.5c-4.691,0 -8.5,-3.809 -8.5,-8.5c0,-4.692 3.809,-8.5 8.5,-8.5Zm0,4c2.484,0 4.5,2.016 4.5,4.5c0,2.483 -2.016,4.5 -4.5,4.5c-2.484,0 -4.5,-2.017 -4.5,-4.5c0,-2.484 2.016,-4.5 4.5,-4.5Z" style="fill:#f8f9fb;"/><path d="M161.784,0.02c4.691,0 8.5,3.809 8.5,8.5c0,4.691 -3.809,8.5 -8.5,8.5c-4.692,0 -8.5,-3.809 -8.5,-8.5c0,-4.691 3.808,-8.5 8.5,-8.5Zm0,4c2.483,0 4.5,2.017 4.5,4.5c0,2.484 -2.017,4.5 -4.5,4.5c-2.484,0 -4.5,-2.016 -4.5,-4.5c0,-2.483 2.016,-4.5 4.5,-4.5Z" style="fill:#f8f9fb;"/><path d="M236.536,17l0,31l-38,-38l0,38l-31,-31" style="fill:none;stroke:#f8f9fb;stroke-width:6px;"/><path d="M236.536,0c-4.692,0 -8.5,3.809 -8.5,8.5c0,4.691 3.808,8.5 8.5,8.5c4.691,0 8.5,-3.809 8.5,-8.5c0,-4.691 -3.809,-8.5 -8.5,-8.5Zm0,4c-2.484,0 -4.5,2.016 -4.5,4.5c0,2.484 2.016,4.5 4.5,4.5c2.483,0 4.5,-2.016 4.5,-4.5c0,-2.484 -2.017,-4.5 -4.5,-4.5Z" style="fill:#f8f9fb;"/></g></svg>
