<svg xmlns="http://www.w3.org/2000/svg" viewBox="0 0 512 512">
  <path d="M17 256C17 124.3 124.3 17 256 17c74 0 143.2 35 188.2 94h-51.7c-4.7 0-8.5 3.8-8.5 8.5s3.8 8.5 8.5 8.5h68.3c.3 0 .5 0 .8-.2.5 0 1 0 1.6-.3l1.6-.6c.2-.3.5-.3.7-.4l.6-.6c.6-.4 1-.8 1.3-1.2l1-1.3.5-1.5.4-1.7V51.2c0-4.7-3.7-8.5-8.4-8.5s-8.5 3.8-8.5 8.5v42.5C404 34.7 332.3 0 256 0 114.8 0 0 114.8 0 256c0 27.2 4.2 54 12.6 79.4 1 3.6 4.5 6 8 6 1 0 1.8-.2 2.7-.5 4.5-1.6 7-6.4 5.5-11C21 306.4 17 281.5 17 256z"/>
  <path d="M227.2 426c1 .5 2 .7 3.2.7 2.8 0 5.5-1.4 7.2-4l128-196.2c1.8-2.8 1.8-6.5 0-9.3-2-2.8-5.3-4.3-8.6-3.7l-90.5 15L290 95.3c.7-4-1.6-8-5.4-9.4-3.8-1.6-8.2 0-10.3 3.5l-128 213.3c-1.7 3-1.6 6.4.3 9.2 1.8 2.8 5 4.2 8.4 3.6l90.2-15-23.2 116c-.8 4 1.4 8 5.2 9.4zm-56.8-130.3l94.8-158-17.6 99.7c-.5 2.8.4 5.6 2.3 7.5 2 2 4.7 2.8 7.4 2.3l83.2-13.8-93 143 16.8-84.7c.5-2.7-.3-5.6-2.3-7.6-1.5-1.7-3.7-2.6-6-2.6h-1.4l-84.2 14z"/>
  <path d="M499 175c-1.5-4.3-6.3-6.8-10.8-5.3-4.5 1.5-7 6.4-5.4 10.8 8 24.3 12 49.7 12 75.5 0 131.7-107 239-238.8 239-74 0-143-35-188.2-94h51.7c4.7 0 8.5-3.8 8.5-8.5s-3.8-8.5-8.5-8.5H51.2c-.3 0-.5 0-.7.2-.6 0-1.2 0-1.7.3l-1.6.6c-.2.3-.5.3-.7.4l-.6.6c-.6.4-1 .8-1.3 1.2l-1 1.3-.5 1.5-.4 1.7v69.1c0 4.7 3.7 8.5 8.4 8.5s8.5-3.8 8.5-8.5v-42.5c48.3 59 120 93.7 196.3 93.7 141.2 0 256-114.8 256-256 0-27.7-4.4-55-13-81z"/>
</svg>
