<svg xmlns="http://www.w3.org/2000/svg" viewBox="0 0 54 54">
  <path d="M51.2 21h-5c-.8 0-1.5-.4-1.8-1.2s-.2-1.5.4-2l3.6-3.7c.5-.4.8-1 .8-1.8s-.3-1.5-.8-2l-4.6-4.6c-1-1-3-1-4 0l-3.5 3.6c-.6.6-1.4.7-2 .4-1-.3-1.3-1-1.3-1.8v-5C33 1.2 31.8 0 30.2 0h-6.4C22.2 0 21 1.2 21 2.8v5c0 .8-.4 1.5-1.2 1.8-.7.3-1.5.2-2-.4L14 5.6c-1-1-2.8-1-3.8 0l-4.6 4.6c-.5.5-.8 1.2-.8 2 0 .7.3 1.4.8 2l3.6 3.5c.6.6.7 1.4.4 2S8.6 21 7.8 21h-5C1.2 21 0 22.2 0 23.8v6.4C0 31.8 1.2 33 2.8 33h5c.8 0 1.5.4 1.8 1.2s.2 1.5-.4 2L5.6 40c-.5.4-.8 1-.8 1.8s.3 1.5.8 2l4.6 4.6c1 1 3 1 4 0l3.5-3.6c.6-.6 1.4-.7 2-.4 1 .3 1.3 1 1.3 1.8v5c0 1.6 1.2 2.8 2.8 2.8h6.4c1.6 0 2.8-1.2 2.8-2.8v-5c0-.8.4-1.5 1.2-1.8.7-.3 1.5-.2 2 .4l3.7 3.6c1 1 2.8 1 3.8 0l4.6-4.6c.5-.5.8-1.2.8-2 0-.7-.3-1.4-.8-2l-3.6-3.5c-.6-.6-.7-1.4-.4-2s1-1.3 1.8-1.3h5c1.6 0 2.8-1.2 2.8-2.8v-6.4c0-1.6-1.2-2.8-2.8-2.8zm.8 9.2c0 .4-.4.8-.8.8h-5c-1.7 0-3 1-3.7 2.4-.6 1.5-.3 3.2 1 4.3l3.5 3.6c.3.3.3.8 0 1L42.4 47c-.3.3-.8.3-1 0l-3.7-3.6c-1-1.2-2.8-1.5-4.3-1-1.5.7-2.4 2-2.4 3.8v5c0 .4-.4.8-.8.8h-6.4c-.4 0-.8-.4-.8-.8v-5c0-1.7-1-3-2.4-3.7-.5-.2-1-.3-1.6-.3-1 0-2 .4-2.7 1.2L12.7 47c-.3.3-.8.3-1 0L7 42.4c-.3-.3-.3-.8 0-1l3.6-3.7c1.2-1 1.5-2.8 1-4.3-.7-1.5-2-2.4-3.8-2.4h-5c-.4 0-.8-.4-.8-.8v-6.4c0-.4.4-.8.8-.8h5c1.7 0 3-1 3.7-2.4.6-1.5.3-3.2-1-4.3L7 12.7c-.3-.3-.3-.8 0-1L11.6 7c.3-.3.8-.3 1 0l3.7 3.6c1 1.2 2.8 1.5 4.3 1 1.5-.7 2.4-2 2.4-3.8v-5c0-.4.4-.8.8-.8h6.4c.4 0 .8.4.8.8v5c0 1.7 1 3 2.4 3.7 1.5.6 3.2.3 4.3-1L41.3 7c.3-.3.8-.3 1 0l4.7 4.6c.3.3.3.8 0 1l-3.6 3.7c-1.2 1-1.5 2.8-1 4.3.7 1.5 2 2.4 3.8 2.4h5c.4 0 .8.4.8.8v6.4z"/>
  <path d="M27 18c-5 0-9 4-9 9s4 9 9 9 9-4 9-9-4-9-9-9zm0 16c-4 0-7-3-7-7s3-7 7-7 7 3 7 7-3 7-7 7z"/>
</svg>
